<?xml version="1.0" encoding="UTF-8" standalone="no"?>
<svg
   viewBox="0 0 24 24"
   width="512"
   height="512"
   color="#000000"
   fill="none"
   version="1.1"
   id="bitcoinstamp-logo-btcColors"
   xmlns="http://www.w3.org/2000/svg"
   xmlns:svg="http://www.w3.org/2000/svg">
  <path
     id="stamp-edge"
     d="m 21.221707,21.500031 h -1.092409 c -0.153078,0 -0.27832,-0.125245 -0.27832,-0.278323 0,-0.473142 -0.385012,-0.855838 -0.855838,-0.855838 -0.470827,0 -0.855837,0.382696 -0.855837,0.855838 0,0.153078 -0.125253,0.278323 -0.278323,0.278323 h -1.171267 c -0.15308,0 -0.278322,-0.125245 -0.278322,-0.278323 0,-0.473142 -0.38501,-0.855838 -0.855837,-0.855838 -0.473151,0 -0.855837,0.382696 -0.855837,0.855838 0,0.153078 -0.125252,0.278323 -0.280648,0.278323 h -1.168941 c -0.155397,0 -0.280651,-0.125245 -0.280651,-0.278323 0,-0.473142 -0.382681,-0.855838 -0.855835,-0.855838 -0.470824,0 -0.855835,0.382696 -0.855835,0.855838 0,0.153078 -0.125243,0.278323 -0.278324,0.278323 H 9.8082195 c -0.153076,0 -0.278321,-0.125245 -0.278321,-0.278323 0,-0.473142 -0.385011,-0.855838 -0.855838,-0.855838 -0.470826,0 -0.855838,0.382696 -0.855838,0.855838 0,0.153078 -0.125244,0.278323 -0.27832,0.278323 h -1.171269 c -0.153077,0 -0.278321,-0.125245 -0.278321,-0.278323 0,-0.473142 -0.38501,-0.855838 -0.855837,-0.855838 -0.473146,0 -0.855838,0.382696 -0.855838,0.855838 0,0.153078 -0.125244,0.278323 -0.280641,0.278323 h -1.319705 c -0.153077,0 -0.278322,-0.125245 -0.278322,-0.278323 v -1.206063 c 0,-0.155394 0.125245,-0.278314 0.278322,-0.278314 0.473145,0 0.855837,-0.385018 0.855837,-0.855846 0,-0.473141 -0.382692,-0.855834 -0.855837,-0.855834 -0.153077,0 -0.278322,-0.125244 -0.278322,-0.280641 v -1.16895 c 0,-0.155397 0.125245,-0.280639 0.278322,-0.280639 0.473145,0 0.855837,-0.382692 0.855837,-0.855835 0,-0.470827 -0.382692,-0.855839 -0.855837,-0.855839 -0.153077,0 -0.278322,-0.12524 -0.278322,-0.278321 v -1.171268 c 0,-0.153078 0.125245,-0.278321 0.278322,-0.278321 0.473145,0 0.855837,-0.38501 0.855837,-0.855837 0,-0.470829 -0.382692,-0.855836 -0.855837,-0.855836 -0.153077,0 -0.278322,-0.125245 -0.278322,-0.278323 V 9.6945726 c 0,-0.1530768 0.125245,-0.2783214 0.278322,-0.2783214 0.473145,0 0.855837,-0.3850105 0.855837,-0.8558376 0,-0.4731468 -0.382692,-0.855837 -0.855837,-0.855837 -0.153077,0 -0.278322,-0.1252445 -0.278322,-0.2806405 V 6.2549872 c 0,-0.1553969 0.125245,-0.2806417 0.278322,-0.2806417 0.473145,0 0.855837,-0.382692 0.855837,-0.8558377 0,-0.4708264 -0.382692,-0.8558367 -0.855837,-0.8558367 -0.153077,0 -0.278322,-0.1229259 -0.278322,-0.2783213 V 2.7782916 c 0,-0.1530764 0.125245,-0.2783221 0.278322,-0.2783221 h 1.319705 c 0.155397,0 0.280641,0.1252457 0.280641,0.2783221 0,0.4731456 0.382692,0.8558379 0.855838,0.8558379 0.470827,0 0.855837,-0.3826923 0.855837,-0.8558379 0,-0.1530764 0.125244,-0.2783221 0.278321,-0.2783221 h 1.171269 c 0.153076,0 0.27832,0.1252457 0.27832,0.2783221 0,0.4731456 0.385012,0.8558379 0.855838,0.8558379 0.470827,0 0.855838,-0.3826923 0.855838,-0.8558379 0,-0.1530764 0.125245,-0.2783221 0.278321,-0.2783221 h 1.1712635 c 0.153081,0 0.278324,0.1252457 0.278324,0.2783221 0,0.4731456 0.385011,0.8558379 0.855835,0.8558379 0.473154,0 0.855835,-0.3826923 0.855835,-0.8558379 0,-0.1530764 0.125254,-0.2783221 0.280651,-0.2783221 h 1.168941 c 0.155396,0 0.280648,0.1252457 0.280648,0.2783221 0,0.4731456 0.382686,0.8558379 0.855837,0.8558379 0.470827,0 0.855837,-0.3826923 0.855837,-0.8558379 0,-0.1530764 0.122927,-0.2783221 0.278322,-0.2783221 h 1.171267 c 0.15307,0 0.278323,0.1252457 0.278323,0.2783221 0,0.4731456 0.382684,0.8558379 0.855837,0.8558379 0.470826,0 0.855838,-0.3826923 0.855838,-0.8558379 0,-0.1530764 0.125242,-0.2783221 0.27832,-0.2783221 h 1.090093 c 0.155394,0 0.280639,0.1252457 0.280639,0.2783221 v 1.2060582 c 0,0.1553954 -0.125245,0.2783213 -0.280639,0.2783213 -0.470826,0 -0.853522,0.3850103 -0.853522,0.8558367 0,0.4731457 0.382696,0.8558377 0.853522,0.8558377 0.155394,0 0.280639,0.1252448 0.280639,0.2806417 v 1.1689489 c 0,0.155396 -0.125245,0.2806405 -0.280639,0.2806405 -0.470826,0 -0.853522,0.3826902 -0.853522,0.855837 0,0.4708271 0.382696,0.8558376 0.853522,0.8558376 0.155394,0 0.280639,0.1252446 0.280639,0.2783214 v 1.1712684 c 0,0.153078 -0.125245,0.278323 -0.280639,0.278323 -0.470826,0 -0.853522,0.385007 -0.853522,0.855836 0,0.470827 0.382696,0.855837 0.853522,0.855837 0.155394,0 0.280639,0.125243 0.280639,0.278321 v 1.171268 c 0,0.153081 -0.125245,0.278321 -0.280639,0.278321 -0.470826,0 -0.853522,0.385012 -0.853522,0.855839 0,0.473143 0.382696,0.855835 0.853522,0.855835 0.155394,0 0.280639,0.125242 0.280639,0.280639 v 1.16895 c 0,0.155397 -0.125245,0.280641 -0.280639,0.280641 -0.470826,0 -0.853522,0.382693 -0.853522,0.855834 0,0.470828 0.382696,0.855846 0.853522,0.855846 0.155394,0 0.280639,0.12292 0.280639,0.278314 v 1.203747 c 0,0.155394 -0.125245,0.280639 -0.278323,0.280639 z"
     stroke-width="1"
     stroke="#a3a3a3" />
  <path
     id="inner border"
     d="M 6.9626167,5.4999816 H 17.037384 c 0.810299,0 1.462634,0.6523348 1.462634,1.4626351 V 17.037384 c 0,0.810299 -0.652335,1.462634 -1.462634,1.462634 H 6.9626167 c -0.8103003,0 -1.4626351,-0.652335 -1.4626351,-1.462634 V 6.9626167 c 0,-0.8103003 0.6523348,-1.4626351 1.4626351,-1.4626351 z"
     stroke-width="1"
     stroke="#a3a3a3" />
  <path
     id="bitcoin symbol"
     d="m 9.9000323,12 h 2.9400787 m -2.9400787,0 v -1.892641 c 0,-0.329994 0,-0.494989 0.1025187,-0.597507 0.102511,-0.102511 0.267512,-0.102511 0.597502,-0.102511 h 2.240058 c 0.695889,0 1.260033,0.5803852 1.260033,1.296294 0,0.715979 -0.564144,1.296364 -1.260033,1.296364 m -2.9400787,0 v 1.892642 c 0,0.329987 0,0.494982 0.1025187,0.597465 0.102511,0.102553 0.267512,0.102553 0.597502,0.102553 h 2.240058 c 0.695889,0 1.260033,-0.580386 1.260033,-1.296366 0,-0.715908 -0.564144,-1.296294 -1.260033,-1.296294 M 10.945721,9.407341 V 8.499908 m 0,7.000184 V 14.592659 M 12.628846,9.407341 V 8.499908 m 0,7.000184 v -0.907433"
     stroke-width="1"
     stroke-linecap="round"
     stroke="#f7931a" />
</svg>
